<?xml version="1.0" encoding="UTF-8" standalone="no"?>
<!DOCTYPE svg PUBLIC "-//W3C//DTD SVG 1.1//EN"
 "http://www.w3.org/Graphics/SVG/1.1/DTD/svg11.dtd">
<!-- Generated by graphviz version 5.0.0 (20220707.1540)
 -->
<!-- Pages: 1 -->
<svg width="942pt" height="821pt"
 viewBox="0.00 0.00 942.32 821.44" xmlns="http://www.w3.org/2000/svg" xmlns:xlink="http://www.w3.org/1999/xlink">
<g id="graph0" class="graph" transform="scale(1 1) rotate(0) translate(4 817.44)">
<polygon fill="white" stroke="transparent" points="-4,4 -4,-817.44 938.32,-817.44 938.32,4 -4,4"/>
<!-- 1 -->
<g id="node1" class="node">
<title>1</title>
<ellipse fill="none" stroke="black" cx="470.66" cy="-722.93" rx="153.38" ry="90.52"/>
<text text-anchor="middle" x="470.66" y="-771.73" font-family="Times New Roman,serif" font-size="14.00">Node: 1</text>
<text text-anchor="middle" x="470.66" y="-756.73" font-family="Times New Roman,serif" font-size="14.00">Feature: 1</text>
<text text-anchor="middle" x="470.66" y="-741.73" font-family="Times New Roman,serif" font-size="14.00">Threshold: &#45;0.022329129271583925</text>
<text text-anchor="middle" x="470.66" y="-726.73" font-family="Times New Roman,serif" font-size="14.00">Samples: 100</text>
<text text-anchor="middle" x="470.66" y="-711.73" font-family="Times New Roman,serif" font-size="14.00">Class 1: 50.0%</text>
<text text-anchor="middle" x="470.66" y="-696.73" font-family="Times New Roman,serif" font-size="14.00">Class 0: 50.0%</text>
<text text-anchor="middle" x="470.66" y="-681.73" font-family="Times New Roman,serif" font-size="14.00">Gini: 0.500</text>
<text text-anchor="middle" x="470.66" y="-666.73" font-family="Times New Roman,serif" font-size="14.00">Gain: 0.217</text>
</g>
<!-- 2 -->
<g id="node2" class="node">
<title>2</title>
<ellipse fill="none" stroke="black" cx="317.66" cy="-490.91" rx="143.59" ry="90.52"/>
<text text-anchor="middle" x="317.66" y="-539.71" font-family="Times New Roman,serif" font-size="14.00">Node: 2</text>
<text text-anchor="middle" x="317.66" y="-524.71" font-family="Times New Roman,serif" font-size="14.00">Feature: 0</text>
<text text-anchor="middle" x="317.66" y="-509.71" font-family="Times New Roman,serif" font-size="14.00">Threshold: &#45;0.9929751341629496</text>
<text text-anchor="middle" x="317.66" y="-494.71" font-family="Times New Roman,serif" font-size="14.00">Samples: 38</text>
<text text-anchor="middle" x="317.66" y="-479.71" font-family="Times New Roman,serif" font-size="14.00">Class 1: 92.1%</text>
<text text-anchor="middle" x="317.66" y="-464.71" font-family="Times New Roman,serif" font-size="14.00">Class 0: 7.9%</text>
<text text-anchor="middle" x="317.66" y="-449.71" font-family="Times New Roman,serif" font-size="14.00">Gini: 0.145</text>
<text text-anchor="middle" x="317.66" y="-434.71" font-family="Times New Roman,serif" font-size="14.00">Gain: 0.046</text>
</g>
<!-- 1&#45;&gt;2 -->
<g id="edge5" class="edge">
<title>1&#45;&gt;2</title>
<path fill="none" stroke="black" d="M414.99,-638.24C403.17,-620.46 390.63,-601.61 378.62,-583.56"/>
<polygon fill="black" stroke="black" points="381.23,-581.16 372.78,-574.77 375.4,-585.03 381.23,-581.16"/>
<text text-anchor="middle" x="413.16" y="-603.22" font-family="Times New Roman,serif" font-size="14.00">True</text>
</g>
<!-- 7 -->
<g id="node7" class="node">
<title>7</title>
<ellipse fill="none" stroke="black" cx="624.66" cy="-490.91" rx="135.53" ry="90.52"/>
<text text-anchor="middle" x="624.66" y="-539.71" font-family="Times New Roman,serif" font-size="14.00">Node: 7</text>
<text text-anchor="middle" x="624.66" y="-524.71" font-family="Times New Roman,serif" font-size="14.00">Feature: 0</text>
<text text-anchor="middle" x="624.66" y="-509.71" font-family="Times New Roman,serif" font-size="14.00">Threshold: 1.373024987874373</text>
<text text-anchor="middle" x="624.66" y="-494.71" font-family="Times New Roman,serif" font-size="14.00">Samples: 62</text>
<text text-anchor="middle" x="624.66" y="-479.71" font-family="Times New Roman,serif" font-size="14.00">Class 1: 24.2%</text>
<text text-anchor="middle" x="624.66" y="-464.71" font-family="Times New Roman,serif" font-size="14.00">Class 0: 75.8%</text>
<text text-anchor="middle" x="624.66" y="-449.71" font-family="Times New Roman,serif" font-size="14.00">Gini: 0.367</text>
<text text-anchor="middle" x="624.66" y="-434.71" font-family="Times New Roman,serif" font-size="14.00">Gain: 0.146</text>
</g>
<!-- 1&#45;&gt;7 -->
<g id="edge10" class="edge">
<title>1&#45;&gt;7</title>
<path fill="none" stroke="black" d="M526.48,-638.56C538.72,-620.28 551.73,-600.83 564.15,-582.29"/>
<polygon fill="black" stroke="black" points="567.15,-584.09 569.81,-573.84 561.34,-580.2 567.15,-584.09"/>
<text text-anchor="middle" x="567.66" y="-603.22" font-family="Times New Roman,serif" font-size="14.00">False</text>
</g>
<!-- 3 -->
<g id="node3" class="node">
<title>3</title>
<ellipse fill="none" stroke="black" cx="75.66" cy="-258.89" rx="75.82" ry="48.17"/>
<text text-anchor="middle" x="75.66" y="-277.69" font-family="Times New Roman,serif" font-size="14.00">Node: 3</text>
<text text-anchor="middle" x="75.66" y="-262.69" font-family="Times New Roman,serif" font-size="14.00">Class: 0</text>
<text text-anchor="middle" x="75.66" y="-247.69" font-family="Times New Roman,serif" font-size="14.00">Samples: 1</text>
<text text-anchor="middle" x="75.66" y="-232.69" font-family="Times New Roman,serif" font-size="14.00">Class 0: 100.0%</text>
</g>
<!-- 2&#45;&gt;3 -->
<g id="edge1" class="edge">
<title>2&#45;&gt;3</title>
<path fill="none" stroke="black" d="M233.81,-417.13C209.82,-395.7 183.89,-371.95 160.66,-349.4 147.3,-336.43 133.21,-321.95 120.43,-308.48"/>
<polygon fill="black" stroke="black" points="122.89,-305.98 113.48,-301.11 117.8,-310.79 122.89,-305.98"/>
<text text-anchor="middle" x="208.16" y="-371.2" font-family="Times New Roman,serif" font-size="14.00">True</text>
</g>
<!-- 4 -->
<g id="node4" class="node">
<title>4</title>
<ellipse fill="none" stroke="black" cx="317.66" cy="-258.89" rx="148.48" ry="90.52"/>
<text text-anchor="middle" x="317.66" y="-307.69" font-family="Times New Roman,serif" font-size="14.00">Node: 4</text>
<text text-anchor="middle" x="317.66" y="-292.69" font-family="Times New Roman,serif" font-size="14.00">Feature: 1</text>
<text text-anchor="middle" x="317.66" y="-277.69" font-family="Times New Roman,serif" font-size="14.00">Threshold: &#45;0.04677163765240616</text>
<text text-anchor="middle" x="317.66" y="-262.69" font-family="Times New Roman,serif" font-size="14.00">Samples: 37</text>
<text text-anchor="middle" x="317.66" y="-247.69" font-family="Times New Roman,serif" font-size="14.00">Class 1: 94.6%</text>
<text text-anchor="middle" x="317.66" y="-232.69" font-family="Times New Roman,serif" font-size="14.00">Class 0: 5.4%</text>
<text text-anchor="middle" x="317.66" y="-217.69" font-family="Times New Roman,serif" font-size="14.00">Gini: 0.102</text>
<text text-anchor="middle" x="317.66" y="-202.69" font-family="Times New Roman,serif" font-size="14.00">Gain: 0.014</text>
</g>
<!-- 2&#45;&gt;4 -->
<g id="edge4" class="edge">
<title>2&#45;&gt;4</title>
<path fill="none" stroke="black" d="M317.66,-400.32C317.66,-387.05 317.66,-373.31 317.66,-359.84"/>
<polygon fill="black" stroke="black" points="321.16,-359.61 317.66,-349.61 314.16,-359.61 321.16,-359.61"/>
<text text-anchor="middle" x="332.66" y="-371.2" font-family="Times New Roman,serif" font-size="14.00">False</text>
</g>
<!-- 5 -->
<g id="node5" class="node">
<title>5</title>
<ellipse fill="none" stroke="black" cx="192.66" cy="-58.69" rx="71.34" ry="58.88"/>
<text text-anchor="middle" x="192.66" y="-84.99" font-family="Times New Roman,serif" font-size="14.00">Node: 5</text>
<text text-anchor="middle" x="192.66" y="-69.99" font-family="Times New Roman,serif" font-size="14.00">Class: 1</text>
<text text-anchor="middle" x="192.66" y="-54.99" font-family="Times New Roman,serif" font-size="14.00">Samples: 34</text>
<text text-anchor="middle" x="192.66" y="-39.99" font-family="Times New Roman,serif" font-size="14.00">Class 1: 97.1%</text>
<text text-anchor="middle" x="192.66" y="-24.99" font-family="Times New Roman,serif" font-size="14.00">Class 0: 2.9%</text>
</g>
<!-- 4&#45;&gt;5 -->
<g id="edge2" class="edge">
<title>4&#45;&gt;5</title>
<path fill="none" stroke="black" d="M264.83,-174.12C253.37,-155.95 241.46,-137.07 230.7,-120.01"/>
<polygon fill="black" stroke="black" points="233.49,-117.86 225.19,-111.27 227.57,-121.6 233.49,-117.86"/>
<text text-anchor="middle" x="262.16" y="-139.18" font-family="Times New Roman,serif" font-size="14.00">True</text>
</g>
<!-- 6 -->
<g id="node6" class="node">
<title>6</title>
<ellipse fill="none" stroke="black" cx="353.66" cy="-58.69" rx="71.34" ry="58.88"/>
<text text-anchor="middle" x="353.66" y="-84.99" font-family="Times New Roman,serif" font-size="14.00">Node: 6</text>
<text text-anchor="middle" x="353.66" y="-69.99" font-family="Times New Roman,serif" font-size="14.00">Class: 1</text>
<text text-anchor="middle" x="353.66" y="-54.99" font-family="Times New Roman,serif" font-size="14.00">Samples: 3</text>
<text text-anchor="middle" x="353.66" y="-39.99" font-family="Times New Roman,serif" font-size="14.00">Class 1: 66.7%</text>
<text text-anchor="middle" x="353.66" y="-24.99" font-family="Times New Roman,serif" font-size="14.00">Class 0: 33.3%</text>
</g>
<!-- 4&#45;&gt;6 -->
<g id="edge3" class="edge">
<title>4&#45;&gt;6</title>
<path fill="none" stroke="black" d="M333.87,-168.65C336.41,-154.65 339,-140.38 341.44,-126.98"/>
<polygon fill="black" stroke="black" points="344.92,-127.39 343.26,-116.92 338.03,-126.14 344.92,-127.39"/>
<text text-anchor="middle" x="354.66" y="-139.18" font-family="Times New Roman,serif" font-size="14.00">False</text>
</g>
<!-- 8 -->
<g id="node8" class="node">
<title>8</title>
<ellipse fill="none" stroke="black" cx="624.66" cy="-258.89" rx="140.93" ry="90.52"/>
<text text-anchor="middle" x="624.66" y="-307.69" font-family="Times New Roman,serif" font-size="14.00">Node: 8</text>
<text text-anchor="middle" x="624.66" y="-292.69" font-family="Times New Roman,serif" font-size="14.00">Feature: 1</text>
<text text-anchor="middle" x="624.66" y="-277.69" font-family="Times New Roman,serif" font-size="14.00">Threshold: 0.6347566883982738</text>
<text text-anchor="middle" x="624.66" y="-262.69" font-family="Times New Roman,serif" font-size="14.00">Samples: 55</text>
<text text-anchor="middle" x="624.66" y="-247.69" font-family="Times New Roman,serif" font-size="14.00">Class 1: 14.5%</text>
<text text-anchor="middle" x="624.66" y="-232.69" font-family="Times New Roman,serif" font-size="14.00">Class 0: 85.5%</text>
<text text-anchor="middle" x="624.66" y="-217.69" font-family="Times New Roman,serif" font-size="14.00">Gini: 0.249</text>
<text text-anchor="middle" x="624.66" y="-202.69" font-family="Times New Roman,serif" font-size="14.00">Gain: 0.027</text>
</g>
<!-- 7&#45;&gt;8 -->
<g id="edge8" class="edge">
<title>7&#45;&gt;8</title>
<path fill="none" stroke="black" d="M624.66,-400.32C624.66,-387.05 624.66,-373.31 624.66,-359.84"/>
<polygon fill="black" stroke="black" points="628.16,-359.61 624.66,-349.61 621.16,-359.61 628.16,-359.61"/>
<text text-anchor="middle" x="638.16" y="-371.2" font-family="Times New Roman,serif" font-size="14.00">True</text>
</g>
<!-- 11 -->
<g id="node11" class="node">
<title>11</title>
<ellipse fill="none" stroke="black" cx="858.66" cy="-258.89" rx="75.82" ry="48.17"/>
<text text-anchor="middle" x="858.66" y="-277.69" font-family="Times New Roman,serif" font-size="14.00">Node: 11</text>
<text text-anchor="middle" x="858.66" y="-262.69" font-family="Times New Roman,serif" font-size="14.00">Class: 1</text>
<text text-anchor="middle" x="858.66" y="-247.69" font-family="Times New Roman,serif" font-size="14.00">Samples: 7</text>
<text text-anchor="middle" x="858.66" y="-232.69" font-family="Times New Roman,serif" font-size="14.00">Class 1: 100.0%</text>
</g>
<!-- 7&#45;&gt;11 -->
<g id="edge9" class="edge">
<title>7&#45;&gt;11</title>
<path fill="none" stroke="black" d="M704.2,-417.19C727.22,-395.67 752.19,-371.84 774.66,-349.4 787.76,-336.31 801.65,-321.79 814.28,-308.32"/>
<polygon fill="black" stroke="black" points="816.88,-310.66 821.15,-300.96 811.77,-305.88 816.88,-310.66"/>
<text text-anchor="middle" x="770.66" y="-371.2" font-family="Times New Roman,serif" font-size="14.00">False</text>
</g>
<!-- 9 -->
<g id="node9" class="node">
<title>9</title>
<ellipse fill="none" stroke="black" cx="587.66" cy="-58.69" rx="71.34" ry="58.88"/>
<text text-anchor="middle" x="587.66" y="-84.99" font-family="Times New Roman,serif" font-size="14.00">Node: 9</text>
<text text-anchor="middle" x="587.66" y="-69.99" font-family="Times New Roman,serif" font-size="14.00">Class: 0</text>
<text text-anchor="middle" x="587.66" y="-54.99" font-family="Times New Roman,serif" font-size="14.00">Samples: 26</text>
<text text-anchor="middle" x="587.66" y="-39.99" font-family="Times New Roman,serif" font-size="14.00">Class 1: 26.9%</text>
<text text-anchor="middle" x="587.66" y="-24.99" font-family="Times New Roman,serif" font-size="14.00">Class 0: 73.1%</text>
</g>
<!-- 8&#45;&gt;9 -->
<g id="edge6" class="edge">
<title>8&#45;&gt;9</title>
<path fill="none" stroke="black" d="M608.05,-168.94C605.42,-154.83 602.74,-140.45 600.22,-126.95"/>
<polygon fill="black" stroke="black" points="603.6,-126 598.32,-116.82 596.72,-127.29 603.6,-126"/>
<text text-anchor="middle" x="618.16" y="-139.18" font-family="Times New Roman,serif" font-size="14.00">True</text>
</g>
<!-- 10 -->
<g id="node10" class="node">
<title>10</title>
<ellipse fill="none" stroke="black" cx="748.66" cy="-58.69" rx="71.34" ry="58.88"/>
<text text-anchor="middle" x="748.66" y="-84.99" font-family="Times New Roman,serif" font-size="14.00">Node: 10</text>
<text text-anchor="middle" x="748.66" y="-69.99" font-family="Times New Roman,serif" font-size="14.00">Class: 0</text>
<text text-anchor="middle" x="748.66" y="-54.99" font-family="Times New Roman,serif" font-size="14.00">Samples: 29</text>
<text text-anchor="middle" x="748.66" y="-39.99" font-family="Times New Roman,serif" font-size="14.00">Class 0: 96.6%</text>
<text text-anchor="middle" x="748.66" y="-24.99" font-family="Times New Roman,serif" font-size="14.00">Class 1: 3.4%</text>
</g>
<!-- 8&#45;&gt;10 -->
<g id="edge7" class="edge">
<title>8&#45;&gt;10</title>
<path fill="none" stroke="black" d="M676.71,-174.7C688.17,-156.38 700.09,-137.33 710.86,-120.12"/>
<polygon fill="black" stroke="black" points="714.04,-121.63 716.37,-111.3 708.1,-117.92 714.04,-121.63"/>
<text text-anchor="middle" x="713.66" y="-139.18" font-family="Times New Roman,serif" font-size="14.00">False</text>
</g>
</g>
</svg>
